<?xml version="1.0" encoding="UTF-8" standalone="no"?>
<!-- Created with Inkscape (http://www.inkscape.org/) -->

<svg
   width="63.2314mm"
   height="18.509745mm"
   viewBox="0 0 63.2314 18.509745"
   version="1.1"
   id="svg1"
   xml:space="preserve"
   sodipodi:docname="Logo_Name.svg"
   inkscape:version="1.3.2 (091e20e, 2023-11-25, custom)"
   xmlns:inkscape="http://www.inkscape.org/namespaces/inkscape"
   xmlns:sodipodi="http://sodipodi.sourceforge.net/DTD/sodipodi-0.dtd"
   xmlns="http://www.w3.org/2000/svg"
   xmlns:svg="http://www.w3.org/2000/svg"><sodipodi:namedview
     id="namedview1"
     pagecolor="#505050"
     bordercolor="#eeeeee"
     borderopacity="1"
     inkscape:showpageshadow="0"
     inkscape:pageopacity="0"
     inkscape:pagecheckerboard="0"
     inkscape:deskcolor="#505050"
     inkscape:document-units="mm"
     inkscape:zoom="2"
     inkscape:cx="-37.75"
     inkscape:cy="-19.25"
     inkscape:window-width="3440"
     inkscape:window-height="1377"
     inkscape:window-x="-8"
     inkscape:window-y="-8"
     inkscape:window-maximized="1"
     inkscape:current-layer="layer1" /><defs
     id="defs1" /><g
     inkscape:label="Calque 1"
     inkscape:groupmode="layer"
     id="layer1"
     transform="translate(-57.969796,-134.70266)"><path
       style="fill:#a8a8a8;fill-opacity:1;stroke:none;stroke-opacity:1"
       d="m 76.045116,152.69078 c -2.05883,-0.93474 -3.19127,-3.60527 -2.91685,-6.87853 0.39518,-4.71373 3.72554,-7.44457 7.7249,-6.33427 2.05517,0.57055 3.31039,2.70989 3.31039,5.64209 v 1.20575 h -4.10105 -4.10104 v 0.9748 c 0,1.44148 0.91352,3.13435 1.9153,3.5493 1.17475,0.4866 2.76368,0.36456 4.2415,-0.32577 0.99054,-0.46271 1.33119,-0.52034 1.58363,-0.26791 0.51902,0.51903 -0.29805,1.67367 -1.65768,2.34253 -1.56763,0.77118 -4.40724,0.81474 -5.9991,0.092 z m 5.20281,-9.30385 c -0.24861,-1.35958 -1.03597,-2.17639 -2.0979,-2.17639 -1.15557,0 -1.98981,0.52844 -2.48993,1.5772 -0.78191,1.63968 -0.72212,1.686 2.17626,1.686 h 2.61031 z m 6.7305,9.57528 c -1.12546,-0.48302 -1.96286,-1.82802 -1.9618,-3.15096 0.002,-2.70373 1.7756,-3.9989 5.48911,-4.00879 l 2.18282,-0.006 v -1.57274 c 0,-1.27887 -0.11871,-1.71076 -0.63529,-2.31131 -0.88239,-1.02584 -2.62222,-1.0111 -3.51756,0.0298 -0.33531,0.38983 -0.60965,0.94026 -0.60965,1.22318 0,0.6293 -0.70871,0.67684 -1.52863,0.10254 -0.40894,-0.28643 -0.58804,-0.6822 -0.58804,-1.2994 0,-2.86416 6.26783,-3.77501 8.5586,-1.24374 0.96539,1.06675 1.20731,2.39684 1.21937,6.70431 l 0.0116,4.14616 0.79375,0.17434 c 1.605657,0.35266 0.748547,1.45521 -1.13128,1.45521 -1.02566,0 -1.40511,-0.12922 -1.85167,-0.63056 l -0.56165,-0.63056 -0.75758,0.5601 c -0.57707,0.42664 -1.21071,0.57612 -2.65947,0.62735 -1.04604,0.037 -2.14973,-0.0391 -2.45264,-0.16911 z m 4.81024,-2.03633 c 0.85783,-0.40706 0.89989,-0.49307 0.89989,-1.84009 0,-1.40969 -0.002,-1.4135 -0.94083,-1.58957 -2.20755,-0.41414 -3.82167,0.39397 -3.82167,1.91332 0,1.7676 1.82409,2.48369 3.86261,1.51634 z m 10.028004,1.86303 c -2.18654,-1.13721 -3.129757,-3.00725 -3.145177,-6.23569 -0.01,-2.02631 0.0782,-2.45963 0.773377,-3.81255 1.60298,-3.11973 5.3377,-4.39279 8.38323,-2.85761 1.34159,0.67627 1.72073,2.54706 0.71918,3.54861 -0.72904,0.72904 -1.35894,0.55952 -1.61666,-0.43507 -0.29323,-1.13157 -1.06901,-1.75078 -2.19351,-1.75078 -1.88301,0 -2.94337,1.31029 -3.22264,3.98222 -0.23566,2.25462 0.26424,4.06847 1.39485,5.06116 1.20705,1.05981 3.12617,1.11663 4.95056,0.14659 l 1.22724,-0.65252 0.16645,0.66319 c 0.20967,0.83541 -0.34444,1.47947 -1.90324,2.2122 -1.44376,0.67864 -4.3478,0.747 -5.53366,0.13025 z m 12.00046,0.0149 c -1.1255,-0.61143 -1.36244,-1.69655 -1.48668,-6.80868 l -0.11413,-4.69635 h -1.03264 c -1.0729,0 -1.22161,-0.21084 -0.75874,-1.07573 0.17624,-0.32931 0.55357,-0.51177 1.05833,-0.51177 h 0.78445 v -1.68518 -1.68517 l 0.99218,-0.164 c 1.96169,-0.32424 1.91823,-0.36236 1.91823,1.68226 v 1.85209 h 2.38125 c 1.88736,0 2.38125,0.0784 2.38125,0.37797 0,0.86846 -0.78871,1.20953 -2.79702,1.20953 h -1.96548 v 4.38302 c 0,2.51535 0.11671,4.60109 0.27389,4.89479 0.37943,0.70896 2.21099,0.68857 3.40261,-0.0379 0.94072,-0.57351 1.33713,-0.40429 1.34653,0.5748 0.0148,1.54505 -4.46704,2.73172 -6.38403,1.69031 z m -56.847324,-0.31396 c 0,-0.67593 0.50423,-1.13695 1.24354,-1.13695 h 0.60854 v -7.38002 c 0,-7.93333 0.0405,-7.70123 -1.34456,-7.70123 -0.70126,0 -0.66156,-0.95727 0.0556,-1.34109 0.37509,-0.20074 1.89921,-0.26896 4.56407,-0.20429 3.67191,0.0891 4.09772,0.1512 5.17802,0.75509 1.47823,0.82634 2.23196,2.07605 2.23196,3.70071 0,1.56711 -0.74497,2.86722 -2.06825,3.60949 l -1.01095,0.56708 0.77985,0.17128 c 1.19456,0.26237 2.67154,1.6242 3.01889,2.78352 0.68024,2.27047 -0.44686,4.67533 -2.76513,5.89984 -0.98564,0.52062 -1.58287,0.59064 -5.79524,0.67948 -4.46989,0.0943 -4.69635,0.0748 -4.69635,-0.40291 z m 9.05083,-1.82685 c 2.07779,-1.07446 1.95921,-4.91257 -0.17939,-5.80614 -0.51544,-0.21536 -1.65082,-0.46616 -2.52306,-0.55733 l -1.58588,-0.16576 v 3.6461 3.64611 l 1.75394,-0.1797 c 0.96467,-0.0988 2.10515,-0.36131 2.53439,-0.58328 z m -0.75707,-8.50686 c 1.14121,-0.66253 1.69114,-2.33712 1.2505,-3.80785 -0.41517,-1.38573 -1.54071,-2.07433 -3.3927,-2.07565 l -1.38906,-9.9e-4 v 3.34415 3.34415 l 1.34845,-0.15971 c 0.74165,-0.0878 1.72391,-0.37768 2.18281,-0.6441 z"
       id="path1-7"
       sodipodi:nodetypes="sssscccssssssssssscscsccsssssssscssscssccsscsssccssssssscssssscssscccsscssscsssssssscssssssscsssssssssccccssssccccs" /></g></svg>
