<?xml version="1.0" encoding="UTF-8" standalone="no"?>
<!-- Created with Inkscape (http://www.inkscape.org/) -->

<svg
   width="48mm"
   height="48mm"
   viewBox="0 0 48 48"
   version="1.1"
   id="svg1"
   xml:space="preserve"
   inkscape:version="1.3.2 (091e20e, 2023-11-25, custom)"
   sodipodi:docname="Logo_Icon.svg"
   xmlns:inkscape="http://www.inkscape.org/namespaces/inkscape"
   xmlns:sodipodi="http://sodipodi.sourceforge.net/DTD/sodipodi-0.dtd"
   xmlns="http://www.w3.org/2000/svg"
   xmlns:svg="http://www.w3.org/2000/svg"><sodipodi:namedview
     id="namedview1"
     pagecolor="#505050"
     bordercolor="#eeeeee"
     borderopacity="1"
     inkscape:showpageshadow="0"
     inkscape:pageopacity="0"
     inkscape:pagecheckerboard="0"
     inkscape:deskcolor="#505050"
     inkscape:document-units="mm"
     inkscape:zoom="4"
     inkscape:cx="95.875"
     inkscape:cy="122.375"
     inkscape:window-width="3440"
     inkscape:window-height="1377"
     inkscape:window-x="-8"
     inkscape:window-y="-8"
     inkscape:window-maximized="1"
     inkscape:current-layer="layer1" /><defs
     id="defs1" /><g
     inkscape:label="Calque 1"
     inkscape:groupmode="layer"
     id="layer1"
     transform="translate(-65.802353,-84.712006)"><rect
       style="fill:none;fill-opacity:1;stroke:none;stroke-width:11.7762;stroke-opacity:1"
       id="rect2"
       width="48"
       height="48"
       x="65.802353"
       y="84.712006" /><g
       id="g2"><path
         style="fill:#666a4e;fill-opacity:1"
         d="m 94.150575,119.96963 c 1.6742,-0.42156 2.49472,-1.4702 2.49472,-3.18828 0,-1.62013 -0.56861,-2.65942 -1.76788,-3.23132 -0.73848,-0.35215 -1.89392,-0.42722 -6.57547,-0.42722 h -5.67956 v 7.14375 h 5.1745 c 2.9485,0 5.68178,-0.12774 6.35369,-0.29693 z m -11.52822,-16.37182 h 5.30016 c 3.97381,0 5.52463,-0.0938 6.19713,-0.37478 h 3e-5 c 0.49333,-0.20613 1.10356,-0.69008 1.35606,-1.07545 0.57732,-0.88109 0.57088,-2.768592 -0.0125,-3.658892 -0.83185,-1.26957 -2.03634,-1.50547 -7.68686,-1.50547 h -5.16073 l 0.0661,-4.16718 0.0729,-4.167191 6.74688,10e-4 c 7.21846,0.002 8.52716,0.16602 10.937215,1.3738 5.54424,2.778431 7.11899,10.651343 3.05775,15.287103 -1.05351,1.20255 -3.779335,2.29684 -3.788595,2.59313 -0.005,0.15016 0.1337,0.26715 1.060585,0.69633 2.98173,1.38064 5.16375,4.39091 5.63706,7.77677 0.59637,4.26616 -1.21213,8.48507 -4.47776,10.4458 -2.720135,1.63321 -3.331025,1.72962 -11.698655,1.84631 l -7.60677,0.10607 v -4.25403 -4.25457 -12.03854 -4.63021"
         id="path1"
         sodipodi:nodetypes="ssssccsscsssscsccccsssssssccccc" /><path
         style="fill:#a8a8a8;fill-opacity:1"
         d="m 82.611409,103.59391 h -4.7625 -4.7625 v -3.30729 -3.307301 h 4.75578 4.75578 m 0.0134,23.283341 h -4.7625 -4.7625 v -3.70417 -3.70417 h 4.7625 4.7625 m 0,0.26459 v 3.57187 3.57188 z m -3e-5,-16.139591 v 3.307301 3.30729 z"
         id="path1-3"
         sodipodi:nodetypes="cccccccccccccccccccccc" /></g></g></svg>
